<?xml version="1.0" encoding="UTF-8"?><svg id="Layer_2" xmlns="http://www.w3.org/2000/svg" xmlns:xlink="http://www.w3.org/1999/xlink" viewBox="0 0 118.21 118.21"><defs><style>.cls-1{fill:url(#linear-gradient);}.cls-2{fill:#fff;}.cls-3{fill:url(#New_Gradient_Swatch_5);}</style><linearGradient id="linear-gradient" x1="28.89" y1="59.11" x2="81.51" y2="59.11" gradientUnits="userSpaceOnUse"><stop offset="0" stop-color="#0266ff"/><stop offset="1" stop-color="#2840f1"/></linearGradient><linearGradient id="New_Gradient_Swatch_5" x1="57.59" y1="66.04" x2="97.22" y2="66.04" gradientUnits="userSpaceOnUse"><stop offset="0" stop-color="#08ace8"/><stop offset="1" stop-color="#2af396"/></linearGradient></defs><g id="Layer_1-2"><rect class="cls-2" width="118.21" height="118.21" rx="13" ry="13"/><path class="cls-1" d="m39.01,95.15c-.81,0-1.3-.03-1.3-.03h-.06c-4.83,0-8.75-3.92-8.75-8.74v-46.86c0-4.4,1.72-8.53,4.82-11.64,3.11-3.11,7.25-4.82,11.64-4.82,2.45,0,4.9.55,7.1,1.6l16.32,9.28c1.22.72,6.95,4.72,7.91,5.68,3.11,3.11,4.82,7.25,4.82,11.64,0,3.49-.74,5.65-2.93,8.55,0,.01-1.01,1.28-2.47,2.59.02-.21.03-.42.03-.64,0-.72-.21-1.48-.62-2.27-.66-1.92-3.87-4.09-4.01-4.18l-.54-.36-16.33-9.59-.05-.03c-1.4-.72-2.69-1.07-3.93-1.07-1.15,0-2.24.29-3.35.89-1.91,1.03-2.96,2.96-2.96,5.43v34.65s-.23,9.6-.23,9.6c-2.09.26-3.91.32-5.11.32Z"/><path class="cls-3" d="m57.64,89.15c0-.08,0-.17,0-.26v-.08s.01-12.47.01-12.47l16.16-9.35c3.64-1.65,6.64-5.48,6.77-5.65,2.55-3.38,3.45-6.02,3.45-10.09,0-3.77-1.06-7.32-3.09-10.4l8.28,4.72c1.15.69,2.22,1.53,3.18,2.49l.02.02c3.09,3.11,4.79,7.24,4.79,11.63,0,4.4-1.72,8.53-4.84,11.64-1.22,1.22-2.52,2.22-3.76,2.9l-17.17,9.75-13.86,7.2.06-2.06Z"/></g></svg>